<?xml version="1.0" encoding="UTF-8" standalone="no"?>
<svg width="45px" height="58px" viewBox="0 0 45 58" version="1.1" xmlns="http://www.w3.org/2000/svg" xmlns:xlink="http://www.w3.org/1999/xlink">
    <!-- Generator: Sketch 3.8.3 (29802) - http://www.bohemiancoding.com/sketch -->
    <title>icon-gelato</title>
    <desc>Created with Sketch.</desc>
    <defs>
        <path d="M22.3859221,22.7204985 C25.397116,19.482948 29.0869928,20.2166368 30.6285608,24.3621107 L40.9627619,52.1521014 C42.5038516,56.2962892 40.4872116,58.1881422 36.4540116,56.3756696 L11.7565199,45.2769075 C7.72531613,43.4653319 6.89336754,39.3776546 9.90962863,36.1346561 L22.3859221,22.7204985 Z" id="path-1"></path>
        <mask id="mask-2" maskContentUnits="userSpaceOnUse" maskUnits="objectBoundingBox" x="0" y="0" width="33.3849366" height="36.3624204" fill="white">
            <use xlink:href="#path-1"></use>
        </mask>
    </defs>
    <g id="Page-1" stroke="none" stroke-width="1" fill="none" fill-rule="evenodd">
        <g id="Artboard-2" transform="translate(-824.000000, -363.000000)">
            <g id="icon-gelato" transform="translate(816.000000, 352.000000)">
                <g id="Group" transform="translate(37.311949, 40.488346) rotate(-8.000000) translate(-37.311949, -40.488346) translate(5.311949, 4.988346)">
                    <g id="Group-2" transform="translate(31.780623, 35.202891) rotate(-14.000000) translate(-31.780623, -35.202891) translate(6.780623, 5.202891)" fill="#000000" opacity="0.2">
                        <path d="M9.62860149,21.5189489 C9.11019369,20.2509167 8.829638,18.8954091 8.829638,17.4869402 C8.829638,10.3947763 15.9431179,4.64544154 24.7180401,4.64544154 C33.4929622,4.64544154 40.6064422,10.3947763 40.6064422,17.4869402 C40.6064422,19.4579295 40.0570365,21.3252061 39.0752494,22.9941876 L40.0252985,23.0945108 C40.5215617,23.1469152 40.7662173,23.5610558 40.5698511,24.0240016 L27.240593,55.4485637 C27.0450779,55.909503 26.71145,55.922463 26.4921915,55.4708725 L12.6850892,27.0334221 C12.6359711,27.0357914 12.5865779,27.0369884 12.5369318,27.0369884 C10.6910998,27.0369884 9.19475738,25.3823343 9.19475738,23.341215 C9.19475738,22.6786028 9.35245063,22.0567185 9.62860149,21.5189489 Z" id="Combined-Shape" transform="translate(24.733660, 30.223743) scale(-1, 1) rotate(-22.000000) translate(-24.733660, -30.223743) "></path>
                    </g>
                    <use id="Rectangle-1" stroke="#FFC000" mask="url(#mask-2)" stroke-width="2" fill="#FEFE93" transform="translate(24.787831, 38.882526) rotate(44.000000) translate(-24.787831, -38.882526) " xlink:href="#path-1"></use>
                    <path d="M37.689656,34.3373517 C37.689656,34.3373517 31.2016975,40.5016116 26.3536665,43.3318395 C21.5056354,46.1620673 16.9550525,46.6658715 16.9550525,46.6658715" id="Line" stroke="#FFC000" stroke-linecap="square" opacity="0.5"></path>
                    <path d="M32.92399,45.892757 C32.92399,45.892757 30.9187879,47.9868621 27.4410122,50.551477 C25.217243,52.1913502 22.2902434,53.3094114 19.537874,54.1743298" id="Line-Copy-2" stroke="#FFC000" stroke-linecap="square" opacity="0.5"></path>
                    <path d="M18.8498627,28.7322843 C19.7972919,27.0341825 20.8444206,25.5322399 22.1441736,25.5322399 C30.7045872,25.5322399 28.182663,28.4494183 28.182663,19.8890047 C28.182663,17.9351408 38.6384797,16.6767097 37.9786815,14.9549635 C35.7477231,9.13326737 30.1065497,5 23.5,5 C14.9395864,5 8,11.9395864 8,20.5 C8,20.6148091 8.00124824,20.7293267 8.00373188,20.84354 C6.11833892,21.5594809 4.7783462,23.3829863 4.7783462,25.5194639 C4.7783462,28.0359039 6.63734434,30.1181517 9.05693848,30.467805 C8.9932343,30.6885069 8.95991596,30.9161758 8.95991596,31.148905 C8.95991596,33.1755278 11.4864632,34.8184302 14.6031172,34.8184302 C17.7197711,34.8184302 20.2463183,33.1755278 20.2463183,31.148905 C20.2463183,30.2233497 19.7193478,29.3778283 18.8498627,28.7322843 Z" id="Combined-Shape" fill="#FFFFFF"></path>
                    <path d="M33.6035286,28.839435 C33.6035286,28.839435 29.1470969,33.3598922 22.925689,36.8611215 C16.7042811,40.3623508 14.1654737,39.9584545 14.1654737,39.9584545" id="Line-Copy" stroke="#FFC000" stroke-linecap="square" opacity="0.5"></path>
                    <path d="M12.0055226,23.4180463 C12.0018488,23.2791607 12,23.1398037 12,23 C12,14.7157288 18.4918711,8 26.5,8 C34.5081289,8 41,14.7157288 41,23 C41,23.80318 40.9389779,24.5916162 40.8214682,25.3606175 C41.7351712,26.1188486 42.3217973,27.2947158 42.3217973,28.6148777 C42.3217973,30.9017708 40.5614485,32.7556641 38.3899483,32.7556641 C37.101232,32.7556641 35.9573251,32.1027145 35.2402397,31.0938137 C34.3201831,32.1095315 32.9368452,32.7556641 31.3899483,32.7556641 C29.6701669,32.7556641 28.1525468,31.9570345 27.248953,30.7397941 C26.4100807,32.1443293 24.7900051,33.095874 22.9290599,33.095874 C22.4049488,33.095874 21.8999434,33.0203981 21.4261142,32.8805835 C20.9417344,35.898083 19.9127579,37.9805361 18.7216538,37.9805361 C17.4975334,37.9805361 16.4446532,35.7810356 15.9781771,32.6275256 C15.8383195,32.6424398 15.6966943,32.6500581 15.5535726,32.6500581 C12.9618407,32.6500581 10.8608269,30.151854 10.8608269,27.0701631 C10.8608269,25.6735385 11.292356,24.3967568 12.0055226,23.4180463 Z" id="Combined-Shape" fill="#EA4D8A"></path>
                </g>
            </g>
        </g>
    </g>
</svg>