<svg width="48px" height="48px" viewBox="0 0 48 48" version="1.1" xmlns="http://www.w3.org/2000/svg">
          <g stroke="none" strokeWidth="1" fill="none" fillRule="evenodd">
            <path d="M9.53148753,35.9144194 L2.7180643,29.2223656 C1.91999483,28.4385123 1.91999483,27.1524888 2.7180643,26.3686355 L5.5083082,23.628095 C6.28634759,22.863915 7.5331646,22.863915 8.31120399,23.628095 L11.1992005,26.4646468 C11.4509348,26.1165486 11.7380776,25.7836225 12.0546497,25.4726896 C13.3405491,24.2096961 15.0387401,23.5535299 16.7869972,23.6599107 C16.8346437,21.8156305 17.6220302,20.0044823 19.191235,18.4632301 C20.315429,17.3590617 21.576274,16.6380221 22.8916606,16.3072684 C22.8465428,15.738188 23.0439619,15.1534572 23.483918,14.7213382 L26.0058692,12.2443112 C26.2783543,11.9766799 26.6099373,11.8018686 26.9596395,11.7217904 C27.367233,10.3762593 28.2842023,9.29954724 29.3696066,8.7665124 C29.6394451,8.6339965 29.9278405,8.56710976 30.2145561,8.56195503 C30.6189683,7.52412868 31.2767053,6.54033902 32.1766009,5.65647371 C35.5218148,2.37084897 39.9738137,2.52080472 43.536396,5.99752281 C43.9126522,6.34234342 44.6274963,7.12179977 44.6916913,7.18485125 C45.4820358,7.96111664 45.4896867,9.2298777 44.7146436,10.0156782 L46.5292956,11.1190235 C47.3229995,11.6016116 47.6799592,12.5671573 47.3910464,13.449986 C47.2870167,13.7678687 47.0856192,14.223995 46.7604402,14.7715148 C46.2554183,15.6218447 45.5800772,16.4618092 44.7108337,17.2400507 C42.406785,19.4637939 39.7851949,20.2137698 37.2678428,19.6567593 L38.0380333,20.4132301 C38.8361027,21.1970833 38.8361027,22.4831069 38.0380333,23.2669601 L35.1404723,26.1129061 C34.8574446,26.3908921 34.5123841,26.5677551 34.1504222,26.6434949 C34.036525,26.9084333 33.8780169,27.2242472 33.6677573,27.5782716 C33.1550789,28.4414931 32.4668778,29.2940326 31.6654331,30.0002546 C30.315991,31.325772 28.905846,32.121852 27.4559023,32.4686157 C27.5414466,33.0750977 27.3484984,33.7133768 26.8770577,34.1764196 L24.1404723,36.8642574 C23.5117965,37.4817344 22.5770534,37.6002742 21.8308634,37.2198768 C22.2862941,38.4406957 21.4235596,39.9144194 19.9487805,39.9144194 L15.1325525,39.9144194 L9.81364302,45.1385818 C9.03560363,45.9027617 7.78878662,45.9027617 7.01074723,45.1385818 L1.1083082,39.3412845 C-0.169084461,38.0866463 0.71926766,35.9144194 2.5097561,35.9144194 L9.53148753,35.9144194 Z" fill="#FFFFFF" fillRule="nonzero" />
            <g id="HERE_logo" transform="translate(2, 5)" fillRule="nonzero">
              <polygon fill="#65C1C2" points="12.3146341 32.9144194 6.41219512 38.7117167 0.509756098 32.9144194" />
              <path d="M20.9536585,19.7387438 C19.7195122,18.3157708 19.7731707,17.5252303 20.5243902,16.7873924 C21.4365854,15.8914465 22.402439,16.2603654 23.4756098,17.2617167 L20.9536585,19.7387438 Z M33.6170732,3.92793296 C34.5292683,3.03198733 35.495122,3.40090646 36.5682927,4.40225728 L34.0463415,6.87928431 C32.7585366,5.45631134 32.8121951,4.7184735 33.6170732,3.92793296 Z M41.2365854,6.45766269 C40.1097561,8.14414918 38.0707317,10.8846897 35.9780488,8.82928431 L41.2902439,3.61171674 C40.8073171,3.13739274 40.4853659,2.71577122 40.1634146,2.45225771 C37.3195122,-0.340985591 34.1,-0.393688293 31.5780488,2.08333873 C29.9146341,3.71712215 29.4317073,5.61441945 29.9146341,7.40631134 L28.2512195,5.56171674 C27.8219512,5.77252755 25.7829268,7.56441945 27.2853659,10.1995546 L25.4073171,8.6711762 L22.8853659,11.1482032 L26.3195122,14.5211762 C23.6902439,12.4657708 20.8463415,12.6765816 18.5926829,14.8900951 C16.1780488,17.2617167 16.3390244,20.1603654 18.1634146,22.531987 L17.7878049,22.1630681 C15.3731707,19.7914465 12.7439024,20.6346897 11.4560976,21.8995546 C10.4365854,22.9009059 9.84634146,24.2184735 10.1146341,25.1671221 L4.9097561,20.05496 L2.1195122,22.7955005 L12.4219512,32.9144194 L17.9487805,32.9144194 L14.2463415,29.277933 C12.3146341,27.327933 12.2609756,26.3265816 13.2268293,25.377933 C14.1390244,24.481987 15.2121951,25.0617167 17.0902439,26.8536086 L20.7390244,30.4373924 L23.4756098,27.7495546 L19.9878049,24.3238789 C22.5097561,26.1684735 25.5146341,26.2738789 28.197561,23.6387438 C28.197561,23.6387438 28.2512195,23.5860411 28.2512195,23.5860411 C29.9146341,22.1103654 30.397561,20.6346897 30.397561,20.6346897 L28.304878,19.2644194 C27.1780488,20.9509059 25.1926829,23.6914465 23.1,21.6360411 L28.4121951,16.4184735 L31.7390244,19.6860411 L34.6365854,16.8400951 L30.504878,12.781987 C28.5731707,10.8846897 29.7,9.09279782 30.504878,8.40766269 C30.8804878,9.19820323 31.4170732,9.93604107 32.1146341,10.6211762 C34.797561,13.2563113 38.2317073,13.7833384 41.2902439,10.831987 C41.2902439,10.831987 41.3439024,10.7792843 41.3439024,10.7792843 C43.0073171,9.30360864 43.4902439,7.82793296 43.4902439,7.82793296 L41.2365854,6.45766269 Z" fill="#393E47"/>
            </g>
          </g>
        </svg>