<?xml version="1.0" encoding="utf-8"?>
<!-- Generator: Adobe Illustrator 17.1.0, SVG Export Plug-In . SVG Version: 6.00 Build 0)  -->
<!DOCTYPE svg PUBLIC "-//W3C//DTD SVG 1.1//EN" "http://www.w3.org/Graphics/SVG/1.1/DTD/svg11.dtd">
<svg version="1.1" id="Layer_1" xmlns="http://www.w3.org/2000/svg" xmlns:xlink="http://www.w3.org/1999/xlink" x="0px" y="0px"
	 viewBox="0 0 30 36" enable-background="new 0 0 30 36" xml:space="preserve">
<path opacity="0.2" d="M10.9,36.1l3.3-13.3c-5-0.9-7.7-5.1-6.4-10.1C9.2,7,15.3,2.4,21.4,2.4s9.8,4.6,8.4,10.3
	c-1.3,5-6.1,9.2-11.6,10.1l-3.3,13.3H10.9z"/>
<g>
	<path fill="#FFFFFF" d="M11.9,0.1c-6.6,0-12,5.4-12,12c0,5.6,3.8,10.3,9,11.6v12.4h6V23.7c5.2-1.3,9-6,9-11.6
		C23.9,5.5,18.5,0.1,11.9,0.1L11.9,0.1z"/>
</g>
<g>
	<rect x="10.9" y="21.1" width="2" height="15"/>
</g>
<circle fill="#F52C52" cx="12" cy="12" r="10"/>
</svg>
